<?xml version="1.0" encoding="UTF-8"?>
<svg version="1.1" xmlns="http://www.w3.org/2000/svg" width="500" height="500">
<path d="M0 0 C1.27431381 -0.0099852 1.27431381 -0.0099852 2.57437134 -0.02017212 C4.37149898 -0.03029556 6.16866419 -0.03498923 7.96582031 -0.03466797 C10.70961817 -0.03903553 13.45179988 -0.07534115 16.1953125 -0.11328125 C17.94270284 -0.11915069 19.69010081 -0.12311923 21.4375 -0.125 C22.6642897 -0.14655655 22.6642897 -0.14655655 23.91586304 -0.16854858 C27.88046471 -0.13689725 29.89173126 0.0532009 33.34619141 2.17724609 C36.45577297 5.52457019 36.4734347 8.27706924 36.44921875 12.66015625 C36.44438477 14.20219727 36.44438477 14.20219727 36.43945312 15.77539062 C36.42688477 17.38317383 36.42688477 17.38317383 36.4140625 19.0234375 C36.40955078 20.10689453 36.40503906 21.19035156 36.40039062 22.30664062 C36.38859993 24.98312835 36.37214313 27.65950527 36.3515625 30.3359375 C37.1765625 30.36171875 38.0015625 30.3875 38.8515625 30.4140625 C51.98921356 31.05921501 64.32007916 33.89863253 76.3515625 39.3359375 C76.3515625 39.9959375 76.3515625 40.6559375 76.3515625 41.3359375 C77.6715625 41.3359375 78.9915625 41.3359375 80.3515625 41.3359375 C80.3515625 41.9959375 80.3515625 42.6559375 80.3515625 43.3359375 C81.0115625 43.3359375 81.6715625 43.3359375 82.3515625 43.3359375 C86.64031308 52.33581561 81.83585534 63.77950402 79.4765625 72.9609375 C79.23228516 73.91403809 78.98800781 74.86713867 78.73632812 75.84912109 C73.83598592 94.34632188 73.83598592 94.34632188 69.3515625 97.3359375 C61.93866652 98.29244021 57.48608026 96.20042932 50.890625 92.93359375 C42.31758936 89.06342645 32.75241457 86.75015129 23.3515625 86.3359375 C22.24941406 86.27599609 22.24941406 86.27599609 21.125 86.21484375 C14.22572106 86.01331842 5.68926791 86.51478423 0.3515625 91.3359375 C-0.48243625 94.24912664 -0.48243625 94.24912664 0.3515625 97.3359375 C4.04318603 101.68026253 8.12212285 104.1949927 13.1015625 106.7734375 C13.845271 107.16394287 14.58897949 107.55444824 15.35522461 107.95678711 C21.09687581 110.88590512 26.92269324 113.07626766 33.03076172 115.09960938 C46.95388585 119.79532692 61.63018749 127.19409628 72.3515625 137.3359375 C72.3515625 137.9959375 72.3515625 138.6559375 72.3515625 139.3359375 C73.6715625 139.9959375 74.9915625 140.6559375 76.3515625 141.3359375 C76.3515625 141.9959375 76.3515625 142.6559375 76.3515625 143.3359375 C77.0115625 143.3359375 77.6715625 143.3359375 78.3515625 143.3359375 C90.17498162 159.89384263 95.74431574 178.35216106 92.59960938 198.69628906 C89.03271744 217.95937301 78.29325688 233.88192141 62.3515625 245.3359375 C61.3615625 245.3359375 60.3715625 245.3359375 59.3515625 245.3359375 C59.3515625 245.9959375 59.3515625 246.6559375 59.3515625 247.3359375 C56.8549881 248.46909141 54.35472478 249.59250329 51.8515625 250.7109375 C51.15546875 251.02804687 50.459375 251.34515625 49.7421875 251.671875 C45.00333596 253.77803124 40.41466172 255.20700321 35.3515625 256.3359375 C35.3829834 257.65984497 35.3829834 257.65984497 35.41503906 259.01049805 C35.48340345 262.29999319 35.53345199 265.58872844 35.57128906 268.87866211 C35.59134671 270.29968207 35.61860028 271.72062009 35.65332031 273.14135742 C35.70210261 275.18949645 35.72458789 277.23654025 35.7421875 279.28515625 C35.7736084 281.13113403 35.7736084 281.13113403 35.80566406 283.0144043 C35.26861597 286.9426512 34.11119574 288.54840002 31.3515625 291.3359375 C28.10831602 292.95756074 24.54796404 292.49900029 20.984375 292.50390625 C20.15324188 292.50723465 19.32210876 292.51056305 18.46578979 292.51399231 C16.7055517 292.51905966 14.94530398 292.52140069 13.18505859 292.52124023 C10.49430445 292.52342311 7.80396262 292.54157065 5.11328125 292.56054688 C3.40364724 292.56348157 1.69401127 292.56546586 -0.015625 292.56640625 C-0.81990936 292.57359177 -1.62419373 292.58077728 -2.45285034 292.58818054 C-9.56834019 292.55914762 -9.56834019 292.55914762 -12.6484375 290.3359375 C-16.75218171 284.78435545 -15.98713366 278.54378551 -15.8359375 271.9609375 C-15.82240234 270.84332031 -15.80886719 269.72570312 -15.79492188 268.57421875 C-15.75970914 265.82762539 -15.71045846 263.08203461 -15.6484375 260.3359375 C-16.65898193 260.26681152 -16.65898193 260.26681152 -17.68994141 260.19628906 C-24.30405335 259.67911263 -30.58453926 258.66694397 -37.0234375 257.0859375 C-38.385896 256.75541382 -38.385896 256.75541382 -39.77587891 256.41821289 C-49.63738863 253.94976853 -58.99145882 250.77171481 -67.6484375 245.3359375 C-67.6484375 244.6759375 -67.6484375 244.0159375 -67.6484375 243.3359375 C-68.3084375 243.3359375 -68.9684375 243.3359375 -69.6484375 243.3359375 C-70.71726446 236.59281015 -70.42054723 231.4652048 -68.734375 224.8828125 C-68.52285797 224.0195636 -68.31134094 223.1563147 -68.09341431 222.26690674 C-67.64522191 220.45664132 -67.18932954 218.64826632 -66.72607422 216.84179688 C-66.02317875 214.08492262 -65.35601049 211.32101067 -64.69140625 208.5546875 C-64.24951669 206.78853051 -63.80557613 205.02288514 -63.359375 203.2578125 C-63.16330658 202.43690125 -62.96723816 201.61598999 -62.76522827 200.77020264 C-61.42709687 195.68672352 -59.86765399 192.7482091 -55.6484375 189.3359375 C-52.17767695 187.87456464 -50.93307295 188.22057259 -47.41015625 189.6484375 C-46.15441761 190.20683485 -44.90052243 190.76939494 -43.6484375 191.3359375 C-25.59777874 199.31229304 -4.03925975 207.23563134 15.7265625 200.5859375 C19.37437751 199.16295084 21.36399982 197.75145784 23.3515625 194.3359375 C23.25349069 188.94198794 22.00214809 186.21581607 18.3515625 182.3359375 C16.09497627 180.91255234 13.99004042 179.72956671 11.6015625 178.5859375 C10.91763428 178.24941162 10.23370605 177.91288574 9.52905273 177.56616211 C3.30683307 174.59992153 -3.11109633 172.2475897 -9.5859375 169.8984375 C-23.71408355 164.75720526 -38.32275156 158.5363933 -49.6484375 148.3359375 C-49.6484375 147.6759375 -49.6484375 147.0159375 -49.6484375 146.3359375 C-50.3084375 146.3359375 -50.9684375 146.3359375 -51.6484375 146.3359375 C-53.35454139 144.43657583 -54.91626877 142.54869497 -56.4609375 140.5234375 C-57.13479492 139.64026855 -57.13479492 139.64026855 -57.82226562 138.73925781 C-67.79990299 125.29334157 -71.25997112 108.66361475 -69.21484375 92.1015625 C-66.24610027 72.91978861 -56.36999704 57.02718986 -40.8359375 45.3359375 C-37.6484375 43.3359375 -37.6484375 43.3359375 -34.6484375 43.3359375 C-34.6484375 42.6759375 -34.6484375 42.0159375 -34.6484375 41.3359375 C-32.44356931 40.34827737 -30.23506439 39.37075234 -28.0234375 38.3984375 C-27.09724609 37.98174805 -27.09724609 37.98174805 -26.15234375 37.55664062 C-22.30468626 35.87582182 -18.78481812 34.95052919 -14.6484375 34.3359375 C-14.66414795 33.54421143 -14.6798584 32.75248535 -14.69604492 31.93676758 C-14.75850449 28.34073055 -14.79746385 24.7448078 -14.8359375 21.1484375 C-14.86107422 19.90255859 -14.88621094 18.65667969 -14.91210938 17.37304688 C-14.92177734 16.17099609 -14.93144531 14.96894531 -14.94140625 13.73046875 C-14.9571167 12.62550049 -14.97282715 11.52053223 -14.98901367 10.38208008 C-14.60194652 6.92011815 -13.72708099 5.10715812 -11.6484375 2.3359375 C-7.77236387 -0.24811159 -4.49872016 0.01218209 0 0 Z M4.3515625 19.3359375 C4.30257812 21.08261719 4.25359375 22.82929688 4.203125 24.62890625 C4.12808197 26.92709898 4.0525348 29.2252753 3.9765625 31.5234375 C3.93015625 33.24916992 3.93015625 33.24916992 3.8828125 35.00976562 C3.84414062 36.12158203 3.80546875 37.23339844 3.765625 38.37890625 C3.7342041 39.40008545 3.7027832 40.42126465 3.67041016 41.47338867 C3.33578246 44.47760748 2.77819864 46.67089372 1.3515625 49.3359375 C-1.20717432 50.26416661 -3.38030699 50.84705589 -6.0234375 51.3359375 C-13.29889083 52.89449249 -19.87640205 55.20643627 -26.6484375 58.3359375 C-26.6484375 58.9959375 -26.6484375 59.6559375 -26.6484375 60.3359375 C-27.71771484 60.68011719 -27.71771484 60.68011719 -28.80859375 61.03125 C-38.51776884 65.49186139 -44.95925733 75.72093135 -48.6484375 85.3359375 C-50.36882742 90.4375782 -51.03446486 95.16475442 -51.0234375 100.5234375 C-51.02327637 101.26231201 -51.02311523 102.00118652 -51.02294922 102.76245117 C-50.85369066 110.98396291 -48.40725614 118.07227445 -44.6484375 125.3359375 C-43.9884375 125.3359375 -43.3284375 125.3359375 -42.6484375 125.3359375 C-42.4215625 125.8928125 -42.1946875 126.4496875 -41.9609375 127.0234375 C-32.99860583 142.81421235 -10.61475866 149.60238783 5.34375 155.4765625 C8.81687711 156.7597241 12.28305531 158.05759159 15.734375 159.3984375 C16.52473145 159.70394531 17.31508789 160.00945312 18.12939453 160.32421875 C21.55773013 161.88508699 24.34499442 164.08101144 27.3515625 166.3359375 C28.0115625 166.3359375 28.6715625 166.3359375 29.3515625 166.3359375 C29.3515625 166.9959375 29.3515625 167.6559375 29.3515625 168.3359375 C30.37888503 169.21227026 31.45023552 170.03730961 32.5390625 170.8359375 C38.22305633 175.66502169 40.87582968 180.78235746 41.8671875 188.1875 C42.32470758 195.53838088 41.78876322 202.06434777 37.375 208.21875 C29.298267 216.66969457 18.7535112 220.27066991 7.2578125 220.76953125 C5.12252081 220.79267088 2.98688705 220.7933144 0.8515625 220.7734375 C-0.27902588 220.76731445 -1.40961426 220.76119141 -2.57446289 220.75488281 C-15.81084842 220.5115497 -28.35159316 218.11628485 -40.6171875 213.0703125 C-42.75866245 212.16593752 -42.75866245 212.16593752 -45.6484375 212.3359375 C-46.48650366 215.27216214 -47.31906194 218.20975817 -48.1484375 221.1484375 C-48.38691406 221.98181641 -48.62539062 222.81519531 -48.87109375 223.67382812 C-49.09667969 224.47626953 -49.32226562 225.27871094 -49.5546875 226.10546875 C-49.76416016 226.84385986 -49.97363281 227.58225098 -50.18945312 228.34301758 C-50.76065363 230.48233387 -50.76065363 230.48233387 -50.6484375 233.3359375 C-35.27497472 238.60245635 -20.24713979 242.37901928 -3.93359375 242.9296875 C-1.18219429 243.41882518 -0.31190075 244.12493933 1.3515625 246.3359375 C2.36744228 249.38357684 2.54960656 251.68312717 2.66796875 254.87890625 C2.70986328 255.95205078 2.75175781 257.02519531 2.79492188 258.13085938 C2.83423828 259.25041016 2.87355469 260.36996094 2.9140625 261.5234375 C2.95724609 262.65458984 3.00042969 263.78574219 3.04492188 264.95117188 C3.1510526 267.74594775 3.25181647 270.54092648 3.3515625 273.3359375 C7.6415625 273.3359375 11.9315625 273.3359375 16.3515625 273.3359375 C16.41214844 271.43328125 16.47273438 269.530625 16.53515625 267.5703125 C16.61956675 265.07551321 16.7042145 262.58072195 16.7890625 260.0859375 C16.82837891 258.83167969 16.86769531 257.57742188 16.90820312 256.28515625 C16.95009766 255.07988281 16.99199219 253.87460937 17.03515625 252.6328125 C17.07181396 251.52260742 17.10847168 250.41240234 17.14624023 249.26855469 C17.3198116 246.78943552 17.51399254 244.67044101 18.3515625 242.3359375 C20.21484375 241.4296875 20.21484375 241.4296875 22.6640625 240.8359375 C23.5715625 240.59359375 24.4790625 240.35125 25.4140625 240.1015625 C26.3834375 239.84890625 27.3528125 239.59625 28.3515625 239.3359375 C45.34221142 234.44189189 59.74933667 226.51113902 68.94921875 210.96875 C73.88602832 201.70019944 74.69081566 192.65892641 74.3515625 182.3359375 C74.33480469 181.60503906 74.31804687 180.87414062 74.30078125 180.12109375 C73.82652545 172.6278521 70.67519428 165.98320106 67.3515625 159.3359375 C66.6915625 159.3359375 66.0315625 159.3359375 65.3515625 159.3359375 C64.94357422 158.44648438 64.94357422 158.44648438 64.52734375 157.5390625 C55.73878625 141.07146639 29.65628676 133.77759812 13.27661133 127.68139648 C10.16043311 126.50850311 7.3921199 125.36033925 4.52734375 123.63671875 C2.34490312 122.07936978 2.34490312 122.07936978 -0.6484375 122.3359375 C-0.6484375 121.6759375 -0.6484375 121.0159375 -0.6484375 120.3359375 C-1.7003125 119.7790625 -2.7521875 119.2221875 -3.8359375 118.6484375 C-9.83669466 115.21252009 -14.85824957 110.00582276 -17.8984375 103.7734375 C-19.41650521 96.81562717 -19.91934624 89.94134725 -16.5859375 83.4609375 C-10.8546293 74.63248782 -3.4030751 71.39834112 6.5546875 68.75 C21.5027558 66.53701782 39.11703781 67.50082561 53.12890625 73.53125 C55.67219212 74.45201782 56.85170146 74.26181196 59.3515625 73.3359375 C60.05107313 70.9221755 60.73640169 68.50583516 61.4140625 66.0859375 C61.71280273 65.06306641 61.71280273 65.06306641 62.01757812 64.01953125 C63.38232937 59.15165139 63.38232937 59.15165139 62.3515625 54.3359375 C51.90320158 51.02981364 41.97351732 48.69855471 30.99121094 48.14501953 C25.93436347 47.81602723 22.97805873 47.21892462 19.3515625 43.3359375 C18.39987567 40.48087701 18.1614679 38.42656468 18.03515625 35.44921875 C17.99326172 34.51142578 17.95136719 33.57363281 17.90820312 32.60742188 C17.86888672 31.63095703 17.82957031 30.65449219 17.7890625 29.6484375 C17.74587891 28.66037109 17.70269531 27.67230469 17.65820312 26.65429688 C17.55214708 24.21500778 17.45135276 21.77549096 17.3515625 19.3359375 C13.0615625 19.3359375 8.7715625 19.3359375 4.3515625 19.3359375 Z " fill="#685DD6" transform="translate(235.6484375,107.6640625)"/>
<path d="M0 0 C1.03176865 -0.00571014 2.06353729 -0.01142029 3.12657166 -0.01730347 C4.25290512 -0.01842133 5.37923859 -0.01953918 6.53970337 -0.02069092 C8.32565666 -0.02813828 8.32565666 -0.02813828 10.14768982 -0.03573608 C13.41015428 -0.04783148 16.67258293 -0.05529919 19.93506575 -0.05974674 C21.97473519 -0.06268166 24.01439907 -0.06678722 26.0540657 -0.07125092 C32.43993839 -0.08491722 38.82579829 -0.09458855 45.21168458 -0.09845281 C52.57571121 -0.10293391 59.93955226 -0.12048772 67.30352247 -0.1494534 C73.00131813 -0.17108525 78.69906163 -0.18115786 84.39689791 -0.18249393 C87.79753235 -0.18354073 91.19799213 -0.18942196 94.59858322 -0.20731354 C98.39290218 -0.2243504 102.18676803 -0.22249935 105.98110962 -0.21600342 C107.10339462 -0.2252182 108.22567963 -0.23443298 109.38197327 -0.243927 C114.92956205 -0.2141457 119.1624543 -0.12913353 123.88980103 3.14044189 C125.7824168 6.18508465 125.92799251 7.75088875 125.57730103 11.32794189 C124.88980103 14.14044189 124.88980103 14.14044189 123.88980103 16.14044189 C123.22980103 16.14044189 122.56980103 16.14044189 121.88980103 16.14044189 C121.88980103 16.80044189 121.88980103 17.46044189 121.88980103 18.14044189 C104.87864415 18.23385599 87.86756724 18.30440663 70.85621262 18.34769058 C62.9576536 18.36832168 55.05925389 18.39645256 47.16079712 18.44219971 C40.27702105 18.48205094 33.39336035 18.50787073 26.50947213 18.51679587 C22.86396522 18.52201361 19.21878835 18.53428797 15.57338715 18.56336212 C11.50520648 18.59554542 7.43760072 18.59640243 3.36929321 18.59454346 C2.15872757 18.60892456 0.94816193 18.62330566 -0.29908752 18.63812256 C-1.40684036 18.6326239 -2.5145932 18.62712524 -3.65591431 18.62145996 C-4.61826618 18.62514713 -5.58061806 18.6288343 -6.57213211 18.63263321 C-9.85539802 17.99593014 -11.04466814 16.71408058 -13.11019897 14.14044189 C-13.8439706 11.0758663 -13.6785466 8.23225296 -13.11019897 5.14044189 C-9.67756539 0.23667963 -5.64563491 0.01875227 0 0 Z " fill="#6B60D4" transform="translate(337.1101989746094,207.85955810546875)"/>
<path d="M0 0 C1.41098717 -0.01062721 1.41098717 -0.01062721 2.85047913 -0.02146912 C4.38804871 -0.01775299 4.38804871 -0.01775299 5.9566803 -0.01396179 C7.04163284 -0.01907272 8.12658539 -0.02418365 9.24441528 -0.02944946 C12.83483886 -0.04336227 16.42507085 -0.04238743 20.01551819 -0.04008484 C22.50889152 -0.04397075 25.00226418 -0.0483052 27.49563599 -0.05307007 C32.72355278 -0.06053585 37.95141989 -0.06037643 43.17933655 -0.05497742 C48.55017785 -0.04960494 53.92083069 -0.05665077 59.29164124 -0.07548523 C65.77368695 -0.09792673 72.25557513 -0.10574033 78.73765755 -0.10181236 C81.20922455 -0.10232624 83.68079522 -0.10757631 86.15234184 -0.11762428 C89.60683579 -0.12994469 93.06078892 -0.123223 96.51527405 -0.11161804 C97.5382962 -0.11926178 98.56131836 -0.12690552 99.61534119 -0.13478088 C108.37338785 -0.06966894 108.37338785 -0.06966894 112.30067444 3.26069641 C114.01525349 6.14430664 114.30807537 7.90545179 114.23817444 11.26069641 C112.97893783 15.29025355 111.6940208 16.70651024 108.30067444 19.26069641 C104.65370601 20.00757814 101.05967803 19.94378976 97.34754944 19.90766907 C96.24294373 19.91643066 95.13833801 19.92519226 94.0002594 19.93421936 C90.34999784 19.95622071 86.70094825 19.94165654 83.05067444 19.92475891 C80.51388822 19.92812679 77.97710357 19.93297918 75.44032288 19.93925476 C70.1240707 19.94662718 64.80825263 19.93638533 59.49208069 19.91255188 C53.35187798 19.88534147 47.21250544 19.89415626 41.07232285 19.92168391 C35.15785073 19.94713508 29.24363586 19.9444068 23.32911682 19.92977524 C20.8156879 19.92643837 18.30223782 19.9305381 15.78883362 19.942173 C12.27658362 19.95486335 8.76593041 19.93552686 5.25379944 19.90766907 C4.21364685 19.91779022 3.17349426 19.92791138 2.1018219 19.93833923 C-2.64555822 19.86853362 -4.9437436 19.83108309 -8.82139587 16.90385437 C-11.02351664 13.80440232 -11.69932556 12.06444458 -11.69932556 8.26069641 C-9.75107649 2.92864632 -9.75107649 2.92864632 -6.87975216 1.10511494 C-4.43117664 0.1568498 -2.62143994 0.006597 0 0 Z " fill="#6256D5" transform="translate(348.69932556152344,242.7393035888672)"/>
<path d="M0 0 C1.35637825 -0.01073296 1.35637825 -0.01073296 2.74015808 -0.02168274 C3.73499207 -0.02437164 4.72982605 -0.02706055 5.75480652 -0.02983093 C7.32327583 -0.03968773 7.32327583 -0.03968773 8.9234314 -0.04974365 C12.39481166 -0.06950622 15.86614862 -0.08114536 19.33757019 -0.09111023 C20.52101202 -0.09518576 21.70445385 -0.09926128 22.92375755 -0.10346031 C29.1864492 -0.12433287 35.44911884 -0.13862992 41.71183777 -0.147995 C48.18859729 -0.15906673 54.66501392 -0.19347245 61.14165211 -0.23316669 C66.11473236 -0.25927972 71.08773024 -0.26768208 76.06087303 -0.27127647 C78.44872544 -0.27615554 80.83657385 -0.28780679 83.22435951 -0.30631447 C86.56421407 -0.33059398 89.90317247 -0.32976107 93.24308777 -0.32279968 C94.23184906 -0.33560974 95.22061035 -0.3484198 96.23933411 -0.36161804 C100.58753685 -0.32853736 103.0152163 -0.27048836 106.78366089 2.05154419 C109.25853547 4.76782847 109.64828086 5.751808 110.06803894 9.45967102 C109.60090519 14.05315289 108.17263676 15.26165088 104.69303894 18.14717102 C104.19803894 18.64217102 104.19803894 18.64217102 103.69303894 19.14717102 C102.30040994 19.24909466 100.90267628 19.28234855 99.5063324 19.28761292 C98.6034549 19.29332306 97.70057739 19.2990332 96.77033997 19.30491638 C95.77191071 19.30603424 94.77348145 19.3071521 93.74479675 19.30830383 C92.17654648 19.31575119 92.17654648 19.31575119 90.57661438 19.323349 C87.09979099 19.33801619 83.62301325 19.34478081 80.14616394 19.35029602 C77.73818459 19.3560445 75.33020526 19.36180227 72.92222595 19.36756897 C67.86470831 19.37809247 62.80720663 19.38392604 57.74967957 19.3874054 C51.26510697 19.39288755 44.78074462 19.41690414 38.29623795 19.44537735 C33.31886681 19.46399217 28.34154638 19.46920876 23.36414337 19.47074127 C20.97351179 19.47377183 18.58288118 19.48181384 16.19228363 19.49492645 C12.84764597 19.51195958 9.50352255 19.51011294 6.15885925 19.50361633 C4.67336075 19.51743851 4.67336075 19.51743851 3.15785217 19.53153992 C-1.80406756 19.50131131 -5.30398885 19.43582814 -9.30696106 16.14717102 C-11.40797701 13.47315072 -11.30543081 12.10432417 -11.18196106 8.64717102 C-10.23261878 4.84980191 -9.33443815 3.532456 -6.30696106 1.14717102 C-3.97363456 -0.01949223 -2.59971769 0.01409715 0 0 Z " fill="#6357D5" transform="translate(48.30696105957031,277.8528289794922)"/>
<path d="M0 0 C0.86355606 -0.0071553 1.72711212 -0.01431061 2.61683655 -0.02168274 C4.03356407 -0.02571609 4.03356407 -0.02571609 5.47891235 -0.02983093 C6.97444893 -0.03968773 6.97444893 -0.03968773 8.50019836 -0.04974365 C11.8038134 -0.06947572 15.10738303 -0.08113775 18.41104126 -0.09111023 C19.53840321 -0.09518576 20.66576515 -0.09926128 21.82728958 -0.10346031 C27.79172839 -0.12431849 33.75614418 -0.13862255 39.72061157 -0.147995 C45.88683211 -0.15907198 52.05269303 -0.19348776 58.21878624 -0.23316669 C62.9559599 -0.25928143 67.69304709 -0.26768216 72.43028641 -0.27127647 C74.70370544 -0.27615402 76.97712032 -0.28780102 79.25046921 -0.30631447 C82.42977388 -0.33060081 85.60813753 -0.32976009 88.7875061 -0.32279968 C89.72794266 -0.33560974 90.66837921 -0.3484198 91.63731384 -0.36161804 C95.87942583 -0.32772872 98.15055706 -0.23361526 101.82354736 2.05154419 C104.34760966 4.77941363 104.72071453 5.70314514 105.07510376 9.45967102 C104.71384434 13.72253213 103.74268322 15.16709156 100.76260376 18.14717102 C98.46780239 19.2945717 97.15985223 19.28232269 94.60749817 19.30107117 C93.73690262 19.30967163 92.86630707 19.31827209 91.96932983 19.32713318 C91.0118988 19.33139313 90.05446777 19.33565308 89.06802368 19.34004211 C87.55807579 19.35230835 87.55807579 19.35230835 86.0176239 19.36482239 C82.67611288 19.38969811 79.33464438 19.40619726 75.99307251 19.42060852 C74.85376093 19.4259322 73.71444935 19.43125587 72.54061317 19.43674088 C66.51134539 19.46348083 60.48209838 19.4828538 54.45278931 19.49726868 C48.21807874 19.51392626 41.98389577 19.55871152 35.74938488 19.60964012 C30.96159745 19.64325688 26.17393615 19.65484 21.38604164 19.66049576 C19.08748654 19.6672227 16.78894014 19.68248192 14.4904995 19.70638657 C11.27501491 19.73792284 8.06096537 19.73809185 4.84536743 19.73066711 C3.89400909 19.74707245 2.94265076 19.76347778 1.96246338 19.78038025 C-2.57166873 19.73747384 -4.59163076 19.63651155 -8.30116272 16.82554626 C-10.76262263 13.42062986 -11.31108821 11.34761322 -11.23739624 7.14717102 C-8.36028113 1.59844903 -6.11973187 0.03485623 0 0 Z " fill="#6559D6" transform="translate(48.237396240234375,242.8528289794922)"/>
<path d="M0 0 C0.9481105 -0.0049649 1.89622101 -0.00992981 2.87306213 -0.01504517 C6.01979286 -0.02968895 9.16647317 -0.03647271 12.31323242 -0.04199219 C14.49558006 -0.0477421 16.67792767 -0.05349985 18.86027527 -0.05926514 C23.44103227 -0.06978163 28.02177168 -0.07561996 32.60253906 -0.07910156 C38.47390383 -0.08458569 44.34503661 -0.10860938 50.21632862 -0.13707352 C54.72617777 -0.15569273 59.23597099 -0.16090513 63.74585533 -0.16243744 C65.91041011 -0.16546643 68.07496384 -0.17350323 70.23948097 -0.18662262 C73.26790655 -0.20366686 76.29576474 -0.20180663 79.32421875 -0.1953125 C80.21947266 -0.20452728 81.11472656 -0.21374207 82.03710938 -0.22323608 C86.78868695 -0.19129882 90.02134825 0.02771965 93.85620117 3.16113281 C95.49863334 5.9980611 95.93191642 7.52512474 95.54370117 10.78613281 C94.03031327 16.0142001 94.03031327 16.0142001 91.88647461 17.82337952 C87.66376101 19.6875509 83.94033472 19.58827917 79.37182617 19.56518555 C78.42327759 19.5720488 77.474729 19.57891205 76.49743652 19.58598328 C73.36687182 19.60426145 70.23680771 19.60041263 67.10620117 19.59472656 C64.92813962 19.5992875 62.7500795 19.60459281 60.57202148 19.61061096 C56.00913645 19.6195438 51.44642644 19.61711645 46.88354492 19.60717773 C41.03568152 19.59568141 35.18842136 19.61590922 29.34063721 19.64509487 C24.84362958 19.66343722 20.34676709 19.66316842 15.84973145 19.65745735 C13.69355421 19.65730393 11.53736726 19.66336528 9.38122559 19.67574883 C6.36729008 19.69062147 3.35447649 19.68000914 0.34057617 19.6628418 C-0.5499646 19.67250977 -1.44050537 19.68217773 -2.35803223 19.69213867 C-6.48525373 19.64289582 -8.60455904 19.50037066 -12.17407227 17.254776 C-15.25119759 13.98406696 -15.47754426 11.6273793 -15.43676758 7.13378906 C-15.14379883 5.16113281 -15.14379883 5.16113281 -13.26879883 2.72363281 C-9.00248284 -0.41336424 -5.12367835 0.00635458 0 0 Z " fill="#6B60D7" transform="translate(367.143798828125,277.8388671875)"/>
<path d="M0 0 C0.87998154 -0.00335861 1.75996307 -0.00671722 2.66661072 -0.01017761 C5.58065191 -0.0196899 8.49463565 -0.02163089 11.40869141 -0.02270508 C13.43266829 -0.02591755 15.45664494 -0.02928162 17.48062134 -0.03279114 C21.7258559 -0.03878316 25.9710701 -0.04063097 30.21630859 -0.04003906 C35.65601074 -0.03993746 41.09558232 -0.05358781 46.53525352 -0.07081127 C50.71654866 -0.08193025 54.89781223 -0.0839583 59.07912064 -0.08342934 C61.08457514 -0.08460968 63.09003046 -0.08903447 65.09547043 -0.0967617 C67.90097952 -0.10655908 70.7062051 -0.10368445 73.51171875 -0.09765625 C74.33994644 -0.10327576 75.16817413 -0.10889526 76.02149963 -0.11468506 C81.07968513 -0.08706753 85.00397403 0.34757974 89.17041016 3.49291992 C91.17131454 6.21440723 90.85380478 8.7147506 90.73681641 11.98510742 C90.38525391 14.14526367 90.38525391 14.14526367 88.69775391 16.64526367 C83.85065151 19.78933009 78.32767373 19.2887172 72.72705078 19.2746582 C71.86628433 19.27641052 71.00551788 19.27816284 70.1186676 19.27996826 C67.28042571 19.28436053 64.44224641 19.28145801 61.60400391 19.27807617 C59.62772612 19.27874996 57.65144841 19.27972062 55.6751709 19.28097534 C51.53604339 19.28244876 47.39693749 19.28030917 43.2578125 19.27563477 C37.95496654 19.2699377 32.65217119 19.27321861 27.34932709 19.27920723 C23.26926289 19.28282243 19.18921068 19.28166983 15.10914612 19.27907944 C13.15393569 19.27841283 11.19872417 19.27922931 9.24351501 19.28155899 C6.51013308 19.28410121 3.77683288 19.28022272 1.04345703 19.2746582 C-0.16611916 19.27769455 -0.16611916 19.27769455 -1.40013123 19.28079224 C-5.26221809 19.26624274 -8.86085429 19.08794738 -12.61474609 18.14526367 C-12.61474609 17.48526367 -12.61474609 16.82526367 -12.61474609 16.14526367 C-13.27474609 16.14526367 -13.93474609 16.14526367 -14.61474609 16.14526367 C-16.46851276 13.41913623 -16.60988056 12.00902878 -16.48974609 8.64526367 C-15.53731414 4.83553587 -14.69268444 3.49898123 -11.61474609 1.14526367 C-7.73055835 -0.14946558 -4.04826336 -0.00220434 0 0 Z " fill="#6C61D4" transform="translate(53.61474609375,207.854736328125)"/>
<path d="M0 0 C13.99503121 -0.09348304 27.99001394 -0.16373251 41.98529339 -0.20724869 C48.48371387 -0.22813313 54.98192476 -0.2564671 61.48022461 -0.30175781 C67.75015641 -0.34518397 74.01988647 -0.36913065 80.28995705 -0.37950897 C82.68340036 -0.38690607 85.0768325 -0.40135063 87.47019005 -0.42292023 C90.81980725 -0.45191031 94.1685883 -0.45595771 97.51831055 -0.45410156 C98.51021393 -0.46848267 99.50211731 -0.48286377 100.52407837 -0.49768066 C104.88082666 -0.47151617 107.31572099 -0.42114776 111.09260559 1.90338135 C113.56464049 4.620656 113.95536361 5.6057119 114.375 9.3125 C113.90786625 13.90598187 112.47959782 15.11447985 109 18 C108.505 18.495 108.505 18.495 108 19 C106.59588683 19.0954693 105.18700191 19.12188529 103.77964783 19.12025452 C102.86954453 19.12162918 101.95944122 19.12300385 101.02175903 19.12442017 C100.01547455 19.12082489 99.00919006 19.11722961 97.97241211 19.11352539 C96.91888046 19.11367142 95.86534882 19.11381744 94.77989197 19.1139679 C91.279022 19.11326826 87.77820448 19.10547348 84.27734375 19.09765625 C81.85738657 19.09579225 79.43742901 19.09436826 77.01747131 19.09336853 C70.63384976 19.08954192 64.25025079 19.07971041 57.86663818 19.06866455 C51.35836086 19.05845351 44.8500799 19.05387157 38.34179688 19.04882812 C25.56118825 19.03808827 12.78059533 19.02120112 0 19 C0 18.67 0 18.34 0 18 C34.98 18 69.96 18 106 18 C106.495 16.515 106.495 16.515 107 15 C108.32 15 109.64 15 111 15 C111.33 12.03 111.66 9.06 112 6 C110.68 5.67 109.36 5.34 108 5 C108 4.34 108 3.68 108 3 C106.69121384 2.99191315 105.38242767 2.98382629 104.03398132 2.97549438 C91.71741405 2.89810757 79.40095826 2.81038728 67.08453655 2.71247292 C60.75209951 2.66246486 54.41967953 2.61613521 48.0871582 2.578125 C41.97926581 2.54132921 35.87151455 2.49498482 29.76374245 2.44193649 C27.43010743 2.42336217 25.09644213 2.40826553 22.76276207 2.39665604 C19.50144278 2.37984563 16.24044888 2.35082304 12.97924805 2.31884766 C11.52268547 2.31560738 11.52268547 2.31560738 10.03669739 2.31230164 C9.14908722 2.30113815 8.26147705 2.28997467 7.3469696 2.2784729 C6.18965851 2.27017676 6.18965851 2.27017676 5.0089674 2.26171303 C3 2 3 2 0 0 Z " fill="#BCB7EA" transform="translate(44,278)"/>
<path d="M0 0 C0.9481105 -0.0049649 1.89622101 -0.00992981 2.87306213 -0.01504517 C6.01979286 -0.02968895 9.16647317 -0.03647271 12.31323242 -0.04199219 C14.49558006 -0.0477421 16.67792767 -0.05349985 18.86027527 -0.05926514 C23.44103227 -0.06978163 28.02177168 -0.07561996 32.60253906 -0.07910156 C38.47390383 -0.08458569 44.34503661 -0.10860938 50.21632862 -0.13707352 C54.72617777 -0.15569273 59.23597099 -0.16090513 63.74585533 -0.16243744 C65.91041011 -0.16546643 68.07496384 -0.17350323 70.23948097 -0.18662262 C73.26790655 -0.20366686 76.29576474 -0.20180663 79.32421875 -0.1953125 C80.21947266 -0.20452728 81.11472656 -0.21374207 82.03710938 -0.22323608 C86.78663674 -0.1913126 90.02601994 0.02401913 93.85620117 3.16113281 C95.39888146 5.89588423 95.98587741 7.3614627 95.48120117 10.47363281 C95.27495117 11.03050781 95.06870117 11.58738281 94.85620117 12.16113281 C93.38300178 9.41116061 92.63215242 7.26493782 91.85620117 4.16113281 C87.40120117 3.17113281 87.40120117 3.17113281 82.85620117 2.16113281 C82.85620117 3.48113281 82.85620117 4.80113281 82.85620117 6.16113281 C82.19620117 6.16113281 81.53620117 6.16113281 80.85620117 6.16113281 C80.85620117 5.17113281 80.85620117 4.18113281 80.85620117 3.16113281 C79.73311554 3.16557404 78.61002991 3.17001526 77.45291138 3.17459106 C66.88735464 3.21507158 56.32181356 3.24508562 45.75619698 3.26475716 C40.32384137 3.27521033 34.89154819 3.28939743 29.45922852 3.31201172 C24.22025816 3.33368551 18.98134799 3.34568987 13.74233627 3.3508873 C11.73997932 3.3545929 9.73762579 3.36182865 7.73529434 3.37259293 C4.93844644 3.38703528 2.14184967 3.38911381 -0.6550293 3.38818359 C-1.48940521 3.39537415 -2.32378113 3.4025647 -3.18344116 3.40997314 C-8.91569451 3.38923714 -8.91569451 3.38923714 -11.14379883 1.16113281 C-7.71421187 -0.55366067 -3.77460616 0.00468141 0 0 Z " fill="#8A82D9" transform="translate(367.143798828125,277.8388671875)"/>
<path d="M0 0 C0.93928345 -0.00571014 1.87856689 -0.01142029 2.84631348 -0.01730347 C4.38927597 -0.01898026 4.38927597 -0.01898026 5.96340942 -0.02069092 C7.5906192 -0.02813828 7.5906192 -0.02813828 9.2507019 -0.03573608 C12.84651316 -0.0503652 16.44228031 -0.05716063 20.03811646 -0.06268311 C22.53291831 -0.0684335 25.02772015 -0.07419124 27.52252197 -0.07995605 C32.08720322 -0.08912385 36.65187179 -0.09542359 41.2165612 -0.09845281 C47.26343136 -0.10248791 53.31014635 -0.11477432 59.35696411 -0.14080811 C65.84432611 -0.16831005 72.33155485 -0.18119899 78.81897354 -0.18312836 C81.29333734 -0.18615865 83.7677002 -0.19419979 86.2420311 -0.20731354 C89.70139809 -0.22434052 93.16026769 -0.22250182 96.61965942 -0.21600342 C97.64425262 -0.2252182 98.66884583 -0.23443298 99.7244873 -0.243927 C108.49535851 -0.19223357 108.49535851 -0.19223357 112.42092896 3.14044189 C114.16420309 6.07231202 114.43525315 7.78949905 114.29592896 11.20294189 C113.30335743 14.53514629 112.05482495 15.93136784 109.42092896 18.14044189 C108.43092896 17.48044189 107.44092896 16.82044189 106.42092896 16.14044189 C106.75092896 15.15044189 107.08092896 14.16044189 107.42092896 13.14044189 C108.41092896 13.14044189 109.40092896 13.14044189 110.42092896 13.14044189 C110.75092896 12.48044189 111.08092896 11.82044189 111.42092896 11.14044189 C110.43092896 10.81044189 109.44092896 10.48044189 108.42092896 10.14044189 C109.08092896 9.48044189 109.74092896 8.82044189 110.42092896 8.14044189 C111.06345246 6.07170155 111.06345246 6.07170155 111.42092896 4.14044189 C110.76092896 4.14044189 110.10092896 4.14044189 109.42092896 4.14044189 C109.42092896 3.48044189 109.42092896 2.82044189 109.42092896 2.14044189 C94.62611005 2.17760543 79.83152856 2.23746131 65.03691483 2.32434464 C58.16751971 2.36415678 51.29823951 2.39653809 44.42874146 2.41143799 C37.80206898 2.42583205 31.17571625 2.46091821 24.54918671 2.50875092 C22.01821737 2.52361383 19.48719722 2.5314857 16.95618439 2.53232574 C13.41702593 2.5346823 9.87886207 2.56165788 6.33987427 2.59454346 C5.28827118 2.58951309 4.23666809 2.58448273 3.15319824 2.57929993 C-2.36948742 2.58808192 -2.36948742 2.58808192 -7.21463013 4.94018555 C-9.07150385 7.93452422 -9.3117482 10.6652449 -9.57907104 14.14044189 C-11.57907104 11.14044189 -11.57907104 11.14044189 -11.39157104 8.20294189 C-10.5664487 5.09286535 -9.7949026 3.44149774 -7.57907104 1.14044189 C-4.72931816 0.19052427 -2.95559472 0.01076558 0 0 Z " fill="#6E63CC" transform="translate(348.5790710449219,242.85955810546875)"/>
<path d="M0 0 C0.94650925 -0.00137466 1.89301849 -0.00274933 2.86820984 -0.00416565 C3.90470673 -0.00057037 4.94120361 0.0030249 6.0091095 0.00672913 C7.10194748 0.0065831 8.19478546 0.00643707 9.32073975 0.00628662 C12.94059723 0.00698447 16.56040355 0.01477094 20.18025208 0.02259827 C22.68703178 0.0244629 25.19381184 0.02588659 27.70059204 0.02688599 C33.62913337 0.03031678 39.55765823 0.03820195 45.48619109 0.04823548 C52.89788002 0.06050697 60.30957122 0.06587986 67.7212677 0.07142639 C80.94328227 0.08215742 94.16528163 0.09903789 107.38728333 0.12025452 C107.38728333 0.45025452 107.38728333 0.78025452 107.38728333 1.12025452 C106.53610034 1.12107167 106.53610034 1.12107167 105.66772175 1.12190533 C91.85449119 1.13687853 78.04158727 1.1796631 64.22853565 1.25234509 C57.5485567 1.28665347 50.86886814 1.3117311 44.188797 1.31581116 C37.74359542 1.32008574 31.29891224 1.34847978 24.8538723 1.39368629 C22.39350591 1.40668801 19.93307758 1.41095958 17.47268105 1.40640831 C14.02933722 1.40152167 10.58751977 1.42751168 7.1443634 1.46083069 C6.12440781 1.45220505 5.10445221 1.44357941 4.05358887 1.43469238 C-0.6148107 1.51054769 -2.8918916 1.58846134 -6.73425293 4.42318726 C-9.00745998 7.68702044 -9.38133889 10.18683212 -9.61271667 14.12025452 C-11.61271667 11.12025452 -11.61271667 11.12025452 -11.42521667 8.18275452 C-10.60009433 5.07267797 -9.82854823 3.42131036 -7.61271667 1.12025452 C-4.74480431 0.16428373 -2.97505833 -0.00333153 0 0 Z " fill="#B8B5ED" transform="translate(348.6127166748047,242.87974548339844)"/>
<path d="M0 0 C1.30617279 -0.002062 1.30617279 -0.002062 2.63873291 -0.00416565 C4.06724327 0.00122726 4.06724327 0.00122726 5.52461243 0.00672913 C6.52966827 0.0065831 7.53472412 0.00643707 8.57023621 0.00628662 C11.89790492 0.00698423 15.22551792 0.01476958 18.55317688 0.02259827 C20.85817433 0.02446298 23.16317218 0.02588663 25.46817017 0.02688599 C31.53940421 0.03070692 37.61061439 0.04053363 43.68183899 0.05158997 C49.87527646 0.06181317 56.06871778 0.06638556 62.26216125 0.07142639 C74.41777071 0.08215625 86.57336244 0.09922762 98.72895813 0.12025452 C98.72895813 0.45025452 98.72895813 0.78025452 98.72895813 1.12025452 C47.24895813 1.61525452 47.24895813 1.61525452 -5.27104187 2.12025452 C-6.69810054 5.6879012 -7.76891189 8.40449267 -8.27104187 12.12025452 C-7.94104187 12.78025452 -7.61104187 13.44025452 -7.27104187 14.12025452 C-7.93104187 14.78025452 -8.59104187 15.44025452 -9.27104187 16.12025452 C-11.14015789 13.37155449 -11.26530815 12.01322501 -11.08354187 8.62025452 C-10.29588456 5.22726916 -9.70360811 3.55282076 -7.27104187 1.12025452 C-4.49558778 0.19510315 -2.8614465 -0.00348532 0 0 Z " fill="#B9B4ED" transform="translate(48.27104187011719,242.87974548339844)"/>
<path d="M0 0 C13.49074084 -0.11575281 26.98136392 -0.20464412 40.47249985 -0.25906086 C46.73672756 -0.28517573 53.00061601 -0.3206093 59.26464844 -0.37719727 C65.30765374 -0.43144806 71.35033233 -0.46140629 77.39356232 -0.47438622 C79.70132848 -0.48363844 82.00907639 -0.50170558 84.3167038 -0.52865028 C87.54453946 -0.56484722 90.77101811 -0.5699491 93.99902344 -0.56762695 C94.95711914 -0.58560333 95.91521484 -0.60357971 96.90234375 -0.62210083 C103.35676754 -0.57172063 103.35676754 -0.57172063 106.59771729 2.30891418 C108.41676198 5.79979754 108.50339712 8.11665081 108 12 C106.5 13.9375 106.5 13.9375 105 15 C104.505 13.02 104.505 13.02 104 11 C104.66 11 105.32 11 106 11 C105.52418802 9.68628013 105.04424851 8.37405454 104.5625 7.0625 C104.29566406 6.33160156 104.02882813 5.60070312 103.75390625 4.84765625 C103.14613052 3.01694322 103.14613052 3.01694322 102 2 C98.83457207 1.87455974 95.68992964 1.8138594 92.52319336 1.79467773 C91.52818314 1.78477814 90.53317291 1.77487854 89.50801086 1.76467896 C86.20197979 1.7329596 82.89593433 1.70826545 79.58984375 1.68359375 C77.30440384 1.66303322 75.01896782 1.642037 72.73353577 1.62062073 C66.70505914 1.56530693 60.67654767 1.51593884 54.64801025 1.46777344 C48.50163658 1.41762619 42.35531379 1.36190484 36.20898438 1.30664062 C24.13936633 1.19894528 12.0697042 1.09752574 0 1 C0 0.67 0 0.34 0 0 Z " fill="#6D62CB" transform="translate(45,244)"/>
<path d="M0 0 C1.9375 0.3125 1.9375 0.3125 4 1 C4.33 1.99 4.66 2.98 5 4 C42.29 4 79.58 4 118 4 C118 4.33 118 4.66 118 5 C103.20536538 5.07007552 88.41075272 5.12298099 73.61598587 5.15543652 C66.74653832 5.17090662 59.87719387 5.19199874 53.0078125 5.22631836 C46.38129657 5.25940884 39.75485978 5.27684225 33.12825775 5.28463173 C30.5972398 5.29018447 28.06622787 5.30102728 25.53525543 5.31719017 C21.99635532 5.33889552 18.45790104 5.34196975 14.91894531 5.34057617 C13.34154068 5.35675491 13.34154068 5.35675491 11.73226929 5.3732605 C10.76755707 5.36913651 9.80284485 5.36501251 8.80889893 5.36076355 C7.9719109 5.36352893 7.13492287 5.36629431 6.27257156 5.36914349 C3.45980239 4.9122534 2.05860063 3.94111111 0 2 C0 1.34 0 0.68 0 0 Z " fill="#9891E1" transform="translate(339,257)"/>
<path d="M0 0 C1.45116211 -0.00193359 1.45116211 -0.00193359 2.93164062 -0.00390625 C4.42920898 0.00189453 4.42920898 0.00189453 5.95703125 0.0078125 C7.47200195 0.00201172 7.47200195 0.00201172 9.01757812 -0.00390625 C10.46293945 -0.00197266 10.46293945 -0.00197266 11.9375 0 C13.25657349 0.00169189 13.25657349 0.00169189 14.60229492 0.00341797 C16.76953125 0.1328125 16.76953125 0.1328125 18.76953125 1.1328125 C18.43953125 2.7828125 18.10953125 4.4328125 17.76953125 6.1328125 C17.10953125 5.1428125 16.44953125 4.1528125 15.76953125 3.1328125 C13.69638429 2.66835742 13.69638429 2.66835742 11.296875 2.734375 C9.94625977 2.72857422 9.94625977 2.72857422 8.56835938 2.72265625 C7.62412109 2.73425781 6.67988281 2.74585938 5.70703125 2.7578125 C4.78986328 2.74621094 3.87269531 2.73460937 2.92773438 2.72265625 C-4.92417596 2.75604495 -12.07650704 3.96348466 -18.23046875 9.1328125 C-18.89046875 9.1328125 -19.55046875 9.1328125 -20.23046875 9.1328125 C-20.56046875 10.1228125 -20.89046875 11.1128125 -21.23046875 12.1328125 C-21.89046875 11.8028125 -22.55046875 11.4728125 -23.23046875 11.1328125 C-24.22046875 11.6278125 -24.22046875 11.6278125 -25.23046875 12.1328125 C-26.22046875 11.8028125 -27.21046875 11.4728125 -28.23046875 11.1328125 C-20.46705205 3.54191618 -10.86203544 0.01387866 0 0 Z " fill="#7F74D8" transform="translate(250.23046875,174.8671875)"/>
<path d="M0 0 C1.66611905 -0.042721 3.33382885 -0.04063832 5 0 C5.33 0.33 5.66 0.66 6 1 C8.32961443 1.35840222 10.66365343 1.68848712 13 2 C13.77045654 2.16878662 14.54091309 2.33757324 15.3347168 2.51147461 C18.37813548 3.06930925 21.30214711 3.21381531 24.39453125 3.31640625 C25.59658203 3.35830078 26.79863281 3.40019531 28.03710938 3.44335938 C29.90592773 3.50233398 29.90592773 3.50233398 31.8125 3.5625 C33.71032227 3.62727539 33.71032227 3.62727539 35.64648438 3.69335938 C38.76421889 3.7992447 41.88203035 3.90132405 45 4 C44.67 4.66 44.34 5.32 44 6 C28.42719448 6.47405801 14.08740104 6.07178052 -1 2 C-0.67 1.34 -0.34 0.68 0 0 Z " fill="#7D77C9" transform="translate(205,323)"/>
<path d="M0 0 C5.63664571 9.60845935 4.53156311 24.36551743 3 35 C2.34 36.32 1.68 37.64 1 39 C1 35.04 1 31.08 1 27 C0.34 26.67 -0.32 26.34 -1 26 C-0.34 25.34 0.32 24.68 1 24 C1.07452979 21.80925156 1.07452979 21.80925156 0.72265625 19.31640625 C0.57086914 17.92518555 0.57086914 17.92518555 0.41601562 16.50585938 C0.24102539 15.04889648 0.24102539 15.04889648 0.0625 13.5625 C-0.16073273 11.64780101 -0.37842784 9.73244602 -0.58984375 7.81640625 C-0.69159912 6.96506104 -0.79335449 6.11371582 -0.89819336 5.23657227 C-1 3 -1 3 0 0 Z " fill="#968FD4" transform="translate(325,273)"/>
<path d="M0 0 C-1.33468794 3.45412296 -2.8258663 6.7601692 -4.5 10.0625 C-4.9228125 10.89910156 -5.345625 11.73570312 -5.78125 12.59765625 C-6.1834375 13.39042969 -6.585625 14.18320313 -7 15 C-7.66756863 16.33288197 -8.3345659 17.66605109 -9 19 C-9 16.69 -9 14.38 -9 12 C-8.34 12 -7.68 12 -7 12 C-7 11.34 -7 10.68 -7 10 C-7.66 10 -8.32 10 -9 10 C-10.31372549 4.74509804 -10.31372549 4.74509804 -9 1.625 C-6.06949364 -0.75603642 -3.65292086 -0.27569214 0 0 Z " fill="#6D61D2" transform="translate(195,178)"/>
<path d="M0 0 C0.99 0 1.98 0 3 0 C3 0.99 3 1.98 3 3 C3.66 3 4.32 3 5 3 C5.33 3.99 5.66 4.98 6 6 C8.01508358 6.73323796 8.01508358 6.73323796 10 7 C10 7.66 10 8.32 10 9 C9.01 9.495 9.01 9.495 8 10 C8.33 10.66 8.66 11.32 9 12 C7.3125 12.8125 7.3125 12.8125 5 13 C2.25 11.0625 2.25 11.0625 0 8 C-0.41972389 5.19147717 -0.24258779 2.86253595 0 0 Z " fill="#6E66D3" transform="translate(352,283)"/>
<path d="M0 0 C-3.68734758 2.45823172 -6.69699971 3.01242616 -11 4 C-10.98428955 4.89307861 -10.9685791 5.78615723 -10.95239258 6.70629883 C-10.90124561 10.02178756 -10.86364188 13.33685675 -10.83520508 16.65258789 C-10.82012411 18.08722552 -10.7996562 19.52181708 -10.77368164 20.95629883 C-10.73726563 23.01915859 -10.72026757 25.08140858 -10.70703125 27.14453125 C-10.6913208 28.38565674 -10.67561035 29.62678223 -10.65942383 30.90551758 C-11 34 -11 34 -12.51831055 35.9284668 C-13.25174683 36.45887573 -13.25174683 36.45887573 -14 37 C-13.75443359 35.20755859 -13.75443359 35.20755859 -13.50390625 33.37890625 C-12.78467466 26.90582193 -12.89254525 20.44210675 -12.9375 13.9375 C-12.94201172 12.69033203 -12.94652344 11.44316406 -12.95117188 10.15820312 C-12.96286837 7.10541779 -12.97925914 4.05273502 -13 1 C-8.60650347 0.33653501 -4.44674297 -0.10845715 0 0 Z " fill="#8E8ACE" transform="translate(282,360)"/>
<path d="M0 0 C0.99 0.66 1.98 1.32 3 2 C3 2.99 3 3.98 3 5 C1.35 5 -0.3 5 -2 5 C-2 6.32 -2 7.64 -2 9 C-2.804375 9.20625 -3.60875 9.4125 -4.4375 9.625 C-5.283125 10.07875 -6.12875 10.5325 -7 11 C-7.89830839 14.05272465 -7.89830839 14.05272465 -8 17 C-10.92824652 16.02391783 -12.61426621 14.89213369 -15 13 C-14.25234375 12.48050781 -13.5046875 11.96101563 -12.734375 11.42578125 C-11.74953125 10.72839844 -10.7646875 10.03101563 -9.75 9.3125 C-8.28820312 8.28576172 -8.28820312 8.28576172 -6.796875 7.23828125 C-4.05359194 5.04288852 -2.07498563 2.82099237 0 0 Z " fill="#847DD4" transform="translate(299,325)"/>
<path d="M0 0 C1.02574883 0.00212242 1.02574883 0.00212242 2.07221985 0.00428772 C4.25261847 0.00987749 6.43291376 0.02242803 8.61328125 0.03515625 C10.09309747 0.04017258 11.57291531 0.04473525 13.05273438 0.04882812 C16.67711682 0.05984354 20.30143895 0.07710113 23.92578125 0.09765625 C23.92578125 0.42765625 23.92578125 0.75765625 23.92578125 1.09765625 C23.04317627 1.10176514 22.16057129 1.10587402 21.2512207 1.11010742 C17.96102085 1.13715609 14.67266727 1.18630576 11.38305664 1.25024414 C9.96227423 1.27337128 8.54132167 1.28780751 7.12036133 1.29321289 C5.07135659 1.30254286 3.02500775 1.34360791 0.9765625 1.390625 C-0.86941528 1.41419067 -0.86941528 1.41419067 -2.75268555 1.43823242 C-6.96617851 2.27473698 -8.45405701 3.75234967 -11.07421875 7.09765625 C-11.95948984 10.78207129 -11.95948984 10.78207129 -12.07421875 14.09765625 C-14.07421875 11.09765625 -14.07421875 11.09765625 -13.88671875 8.16015625 C-13.0615964 5.05007971 -12.2900503 3.3987121 -10.07421875 1.09765625 C-6.5359562 -0.0817646 -3.73273149 -0.01523564 0 0 Z " fill="#BAB5ED" transform="translate(351.07421875,242.90234375)"/>
<path d="M0 0 C0.33 0 0.66 0 1 0 C1.33 2.64 1.66 5.28 2 8 C2.99 7.01 3.98 6.02 5 5 C6.10844919 8.32534757 5.84454356 10.62182575 5 14 C4.01 14.33 3.02 14.66 2 15 C1.34 15.66 0.68 16.32 0 17 C-1.07957377 13.76127868 -1.13326784 11.33971795 -1.125 7.9375 C-1.12757813 6.87402344 -1.13015625 5.81054688 -1.1328125 4.71484375 C-1 2 -1 2 0 0 Z " fill="#7D73D4" transform="translate(217,194)"/>
<path d="M0 0 C1.64846769 0.44876616 3.29373455 0.90930488 4.9375 1.375 C5.85402344 1.63023437 6.77054688 1.88546875 7.71484375 2.1484375 C10 3 10 3 11 5 C10.34 5 9.68 5 9 5 C8.01 6.485 8.01 6.485 7 8 C4.5625 8.875 4.5625 8.875 2 9 C-0.53844009 7.18682851 -0.99489025 6.01532925 -2 3 C-1.34 2.01 -0.68 1.02 0 0 Z " fill="#766CD8" transform="translate(242,263)"/>
<path d="M0 0 C1.45599609 0.00290039 1.45599609 0.00290039 2.94140625 0.00585938 C4.45154297 0.02422852 4.45154297 0.02422852 5.9921875 0.04296875 C7.51392578 0.04393555 7.51392578 0.04393555 9.06640625 0.04492188 C16.58621125 0.08998063 16.58621125 0.08998063 18.8671875 1.23046875 C18.5371875 2.88046875 18.2071875 4.53046875 17.8671875 6.23046875 C17.2071875 5.24046875 16.5471875 4.25046875 15.8671875 3.23046875 C13.67624164 2.79847384 13.67624164 2.79847384 11.1484375 2.90234375 C10.21644531 2.9075 9.28445313 2.91265625 8.32421875 2.91796875 C7.34839844 2.93859375 6.37257813 2.95921875 5.3671875 2.98046875 C4.39136719 2.985625 3.41554687 2.99078125 2.41015625 2.99609375 C-2.52298809 2.86332978 -2.52298809 2.86332978 -7.1328125 4.23046875 C-7.7928125 3.57046875 -8.4528125 2.91046875 -9.1328125 2.23046875 C-5.96598704 0.37171993 -3.65345175 -0.01690492 0 0 Z " fill="#7B72CA" transform="translate(250.1328125,174.76953125)"/>
<path d="M0 0 C2.65868411 2.38364782 2.98214832 3.87726971 3.5 7.4375 C2.87380501 11.89913927 1.52750425 13.29284557 -2 16 C-2.99 16 -3.98 16 -5 16 C-4.67 15.01 -4.34 14.02 -4 13 C-2.68 13 -1.36 13 0 13 C0.33 10.03 0.66 7.06 1 4 C-0.32 3.67 -1.64 3.34 -3 3 C-3 2.34 -3 1.68 -3 1 C-4.32 0.67 -5.64 0.34 -7 0 C-4.24438552 -1.37780724 -2.90228766 -0.92023755 0 0 Z " fill="#7970CE" transform="translate(155,280)"/>
<path d="M0 0 C0.33 0 0.66 0 1 0 C1.05799124 3.77076889 1.09359306 7.54142334 1.125 11.3125 C1.15013672 12.9202832 1.15013672 12.9202832 1.17578125 14.56054688 C1.18222656 15.58857422 1.18867188 16.61660156 1.1953125 17.67578125 C1.20578613 18.62364502 1.21625977 19.57150879 1.22705078 20.5480957 C1 23 1 23 -1 26 C-2.51708428 8.14350797 -2.51708428 8.14350797 0 0 Z " fill="#8C83D1" transform="translate(168,195)"/>
<path d="M0 0 C2.73789749 1.00389575 3.82231282 1.6953934 5.3125 4.25 C6.15691533 7.62766132 5.9934416 9.66487464 5 13 C2.9375 15.375 2.9375 15.375 1 17 C0.01 16.34 -0.98 15.68 -2 15 C-1.67 14.01 -1.34 13.02 -1 12 C-0.01 12 0.98 12 2 12 C2.33 11.34 2.66 10.68 3 10 C2.01 9.67 1.02 9.34 0 9 C0.66 8.34 1.32 7.68 2 7 C2.6425235 4.93125966 2.6425235 4.93125966 3 3 C2.34 3 1.68 3 1 3 C0.67 2.01 0.34 1.02 0 0 Z " fill="#8F87D6" transform="translate(457,244)"/>
<path d="M0 0 C4.62125872 1.83368583 9.21635753 3.72952465 13.8125 5.625 C14.99489258 6.11226563 14.99489258 6.11226563 16.20117188 6.609375 C18.13420912 7.40602065 20.06711749 8.20297899 22 9 C22 9.33 22 9.66 22 10 C17.2455134 9.51649289 13.39998397 8.9411694 9 7 C8.34 7 7.68 7 7 7 C7 6.34 7 5.68 7 5 C5.35 5.33 3.7 5.66 2 6 C1.67 5.01 1.34 4.02 1 3 C0.34 2.34 -0.32 1.68 -1 1 C-0.67 0.67 -0.34 0.34 0 0 Z " fill="#8078D6" transform="translate(211,250)"/>
<path d="M0 0 C0.33 0 0.66 0 1 0 C1 7.59 1 15.18 1 23 C7.93 23.495 7.93 23.495 15 24 C15 24.33 15 24.66 15 25 C13.62773731 25.22566098 12.25189728 25.42959874 10.875 25.625 C9.72644531 25.79902344 9.72644531 25.79902344 8.5546875 25.9765625 C6 26 6 26 0 24 C0 16.08 0 8.16 0 0 Z " fill="#A098E6" transform="translate(271,115)"/>
<path d="M0 0 C0.66 0.99 1.32 1.98 2 3 C0.4169423 7.2742558 -2.50568404 9.26531794 -6 12 C-6.8125 9.875 -6.8125 9.875 -7 7 C-3.13432836 1.56716418 -3.13432836 1.56716418 0 0 Z " fill="#7F75DB" transform="translate(202,166)"/>
<path d="M0 0 C3.3 0.99 6.6 1.98 10 3 C9.67 4.32 9.34 5.64 9 7 C5.95205066 7.93131785 4.57949326 8.29757762 1.6875 6.8125 C-0.51983303 4.44166082 0 3.24602662 0 0 Z " fill="#7B72D7" transform="translate(302,144)"/>
<path d="M0 0 C5.57688222 0.48054767 10.61163068 1.41518549 16 3 C17.32 3 18.64 3 20 3 C20 3.66 20 4.32 20 5 C20.99 5.33 21.98 5.66 23 6 C18.56467958 7.40311604 15.21298974 6.10753215 10.9375 4.6875 C9.85758789 4.3481543 9.85758789 4.3481543 8.75585938 4.00195312 C5.49501822 2.95133857 2.86627418 1.91084946 0 0 Z " fill="#817BCD" transform="translate(180,358)"/>
<path d="M0 0 C0.66 1.32 1.32 2.64 2 4 C1.01 4.33 0.02 4.66 -1 5 C-1.33 5.66 -1.66 6.32 -2 7 C-2.66 7 -3.32 7 -4 7 C-4.66 8.32 -5.32 9.64 -6 11 C-7.32 10.34 -8.64 9.68 -10 9 C-8.71142987 7.68445979 -7.41904109 6.37265903 -6.125 5.0625 C-5.04605469 3.96615234 -5.04605469 3.96615234 -3.9453125 2.84765625 C-2 1 -2 1 0 0 Z " fill="#837AD7" transform="translate(193,155)"/>
<path d="M0 0 C1.66611905 -0.042721 3.33382885 -0.04063832 5 0 C5.33 0.33 5.66 0.66 6 1 C8.32961443 1.35840222 10.66365343 1.68848712 13 2 C14.66934283 2.31966139 16.3373217 2.64731066 18 3 C17.67 3.66 17.34 4.32 17 5 C10.7945858 4.51679152 5.00054754 3.66681876 -1 2 C-0.67 1.34 -0.34 0.68 0 0 Z " fill="#837DD4" transform="translate(205,323)"/>
<path d="M0 0 C2.25 -0.3125 2.25 -0.3125 5 0 C8.14122924 2.80163689 8.93084691 4.42701728 9.4375 8.625 C9 12 9 12 7.5 13.9375 C7.005 14.288125 6.51 14.63875 6 15 C5.67 13.68 5.34 12.36 5 11 C5.66 11 6.32 11 7 11 C5.04760361 4.40272044 5.04760361 4.40272044 0 0 Z " fill="#7C72CC" transform="translate(144,244)"/>
<path d="M0 0 C4.12983705 7.23142896 3.17226181 16.05466994 2 24 C1.67 24 1.34 24 1 24 C0.63542347 20.56352037 0.28513592 17.12573135 -0.0625 13.6875 C-0.16626953 12.71103516 -0.27003906 11.73457031 -0.37695312 10.72851562 C-0.47041016 9.79072266 -0.56386719 8.85292969 -0.66015625 7.88671875 C-0.74918213 7.02264404 -0.83820801 6.15856934 -0.92993164 5.26831055 C-1 3 -1 3 0 0 Z " fill="#7870D2" transform="translate(325,273)"/>
<path d="M0 0 C0.99 0.33 1.98 0.66 3 1 C3 2.32 3 3.64 3 5 C4.32 5.66 5.64 6.32 7 7 C7 7.66 7 8.32 7 9 C5.3501725 8.57781184 3.70516335 8.13675575 2.0625 7.6875 C1.14597656 7.44386719 0.22945313 7.20023438 -0.71484375 6.94921875 C-1.84599609 6.47935547 -1.84599609 6.47935547 -3 6 C-3.33 5.01 -3.66 4.02 -4 3 C-2.1875 1.4375 -2.1875 1.4375 0 0 Z " fill="#786DD4" transform="translate(261,234)"/>
<path d="M0 0 C1.56935594 3.13871188 1.35201103 5.53855822 1 9 C-1.1727422 11.63016161 -2.94673788 13.47336894 -6 15 C-3.10933941 4.44191344 -3.10933941 4.44191344 0 0 Z " fill="#877CD5" transform="translate(175,175)"/>
<path d="M0 0 C0.33 0.66 0.66 1.32 1 2 C0.34 2 -0.32 2 -1 2 C-1 3.65 -1 5.3 -1 7 C0.32 6.01 1.64 5.02 3 4 C3.33 4.99 3.66 5.98 4 7 C1.63707344 9.52588702 0.33537489 10.88820837 -3 12 C-4.22159091 5.64772727 -4.22159091 5.64772727 -3.1875 2.625 C-2 1 -2 1 0 0 Z " fill="#8980D8" transform="translate(41,280)"/>
<path d="M0 0 C0 0.66 0 1.32 0 2 C-1.65 2 -3.3 2 -5 2 C-5.33 3.32 -5.66 4.64 -6 6 C-6.66 6 -7.32 6 -8 6 C-7.34 8.31 -6.68 10.62 -6 13 C-6.66 13.66 -7.32 14.32 -8 15 C-9.85376666 12.27387255 -9.99513447 10.86376511 -9.875 7.5 C-8.43109287 1.72437146 -6.04547492 -0.67171944 0 0 Z " fill="#9088CE" transform="translate(47,209)"/>
<path d="M0 0 C1.01382963 3.6208201 1.49897691 7.27811418 2 11 C-0.3125 12.5625 -0.3125 12.5625 -3 14 C-3.99 13.67 -4.98 13.34 -6 13 C-5.73445313 12.48050781 -5.46890625 11.96101563 -5.1953125 11.42578125 C-3.29301903 7.66979306 -1.48040295 3.94774121 0 0 Z " fill="#8A80D5" transform="translate(308,308)"/>
<path d="M0 0 C2.97 0 5.94 0 9 0 C5.65305775 1.67347112 2.31224943 3.21378986 -1.125 4.6875 C-2.17945313 5.14511719 -3.23390625 5.60273438 -4.3203125 6.07421875 C-5.64675781 6.53248047 -5.64675781 6.53248047 -7 7 C-7.66 6.67 -8.32 6.34 -9 6 C-8.01 4.35 -7.02 2.7 -6 1 C-3.03 1.495 -3.03 1.495 0 2 C0 1.34 0 0.68 0 0 Z " fill="#8E88D5" transform="translate(219,159)"/>
<path d="M0 0 C0.66 0 1.32 0 2 0 C2 0.99 2 1.98 2 3 C2.66 3.33 3.32 3.66 4 4 C3.67 4.99 3.34 5.98 3 7 C3.66 7 4.32 7 5 7 C5.99 9.64 6.98 12.28 8 15 C7.01 15 6.02 15 5 15 C4.15733289 13.25447527 3.32619962 11.5033792 2.5 9.75 C2.0359375 8.77546875 1.571875 7.8009375 1.09375 6.796875 C0 4 0 4 0 0 Z " fill="#8A82D5" transform="translate(169,226)"/>
<path d="M0 0 C0.99 0 1.98 0 3 0 C2.690625 0.721875 2.38125 1.44375 2.0625 2.1875 C1.06613032 4.82494915 0.37710819 7.20939943 0 10 C0.33 10.66 0.66 11.32 1 12 C0.34 12.66 -0.32 13.32 -1 14 C-2.90185343 11.20315672 -2.99271185 9.89614391 -2.75 6.4375 C-2 3 -2 3 0 0 Z " fill="#837ACE" transform="translate(40,245)"/>
<path d="M0 0 C5.28 2.31 10.56 4.62 16 7 C12 9 12 9 10 9 C10 8.01 10 7.02 10 6 C8.9171875 5.814375 8.9171875 5.814375 7.8125 5.625 C5.04278106 5.0095069 2.6029646 4.11555626 0 3 C0 2.01 0 1.02 0 0 Z " fill="#918CDA" transform="translate(247,214)"/>
<path d="M0 0 C0.66 0 1.32 0 2 0 C2.33 0.99 2.66 1.98 3 3 C1.68 3 0.36 3 -1 3 C-0.938125 3.845625 -0.87625 4.69125 -0.8125 5.5625 C-1.04015628 9.73619843 -2.20207814 12.25432947 -4 16 C-5.20655614 12.51799235 -4.78332187 10.35462394 -3.6875 6.875 C-3.42324219 6.00617188 -3.15898437 5.13734375 -2.88671875 4.2421875 C-2 2 -2 2 0 0 Z " fill="#8981D2" transform="translate(178,298)"/>
<path d="M0 0 C2.76276177 0.52268466 5.3260876 1.10869587 8 2 C8 2.66 8 3.32 8 4 C5.24921116 4.91692961 3.64051087 5.10886083 0.8125 5.0625 C-1.0746875 5.0315625 -1.0746875 5.0315625 -3 5 C-2.505 4.360625 -2.01 3.72125 -1.5 3.0625 C0.09802862 1.29025661 0.09802862 1.29025661 0 0 Z " fill="#6D63CE" transform="translate(227,154)"/>
<path d="M0 0 C8.415 2.475 8.415 2.475 17 5 C17 5.33 17 5.66 17 6 C10.01370081 6.50604984 5.79799884 6.0333905 0 2 C0 1.34 0 0.68 0 0 Z " fill="#928AD6" transform="translate(197,302)"/>
<path d="M0 0 C1.32 0 2.64 0 4 0 C3.6875 1.875 3.6875 1.875 3 4 C-0.20380017 6.13586678 -1.01939967 6.23132175 -4.6875 6.125 C-5.89986328 6.09792969 -5.89986328 6.09792969 -7.13671875 6.0703125 C-8.05904297 6.03550781 -8.05904297 6.03550781 -9 6 C-9 5.34 -9 4.68 -9 4 C-6.03 4 -3.06 4 0 4 C0 2.68 0 1.36 0 0 Z " fill="#837BCE" transform="translate(305,199)"/>
<path d="M0 0 C3.5 1 3.5 1 6 2 C6 2.33 6 2.66 6 3 C0.22240116 3.12036664 -5.27959989 2.8320582 -11 2 C-7.27367284 -0.48421811 -4.31338065 -0.42240263 0 0 Z " fill="#8079CD" transform="translate(262,191)"/>
<path d="M0 0 C0.86625 0.37125 0.86625 0.37125 1.75 0.75 C0.76 1.245 0.76 1.245 -0.25 1.75 C-0.25 2.41 -0.25 3.07 -0.25 3.75 C-1.24 4.08 -2.23 4.41 -3.25 4.75 C-4.05212628 6.62387216 -4.05212628 6.62387216 -4.4375 8.8125 C-4.59605469 9.54597656 -4.75460937 10.27945313 -4.91796875 11.03515625 C-5.08232422 11.88400391 -5.08232422 11.88400391 -5.25 12.75 C-5.58 12.75 -5.91 12.75 -6.25 12.75 C-6.87068966 4.68103448 -6.87068966 4.68103448 -4.5 1.125 C-2.25 -0.25 -2.25 -0.25 0 0 Z " fill="#9790D9" transform="translate(330.25,209.25)"/>
<path d="M0 0 C1.87978657 2.73177617 2.01655381 3.88384275 1.5390625 7.234375 C1.23742187 8.39453125 0.93578125 9.5546875 0.625 10.75 C0.32851563 11.92046875 0.03203125 13.0909375 -0.2734375 14.296875 C-0.51320313 15.18890625 -0.75296875 16.0809375 -1 17 C-1.33 17 -1.66 17 -2 17 C-2.05441656 15.10448978 -2.09298035 13.2085208 -2.125 11.3125 C-2.14820313 10.25675781 -2.17140625 9.20101562 -2.1953125 8.11328125 C-1.99858729 4.97748141 -1.33057654 2.82354627 0 0 Z " fill="#847CCF" transform="translate(313,175)"/>
<path d="M0 0 C3.125 0.375 3.125 0.375 6 1 C6 1.99 6 2.98 6 4 C2.58860997 5.09651823 -0.20655581 4.94215473 -3.75 4.5625 C-4.73484375 4.46066406 -5.7196875 4.35882813 -6.734375 4.25390625 C-7.48203125 4.17011719 -8.2296875 4.08632812 -9 4 C-9 3.67 -9 3.34 -9 3 C-7.88625 2.87625 -6.7725 2.7525 -5.625 2.625 C-1.96896323 2.3534187 -1.96896323 2.3534187 0 0 Z " fill="#6054C5" transform="translate(249,122)"/>
<path d="M0 0 C-1.44253657 3.36591866 -3.33264727 5.51047079 -6 8 C-6.6875 5.6875 -6.6875 5.6875 -7 3 C-4.87164172 -0.24854684 -4.06968429 0 0 0 Z " fill="#786ECE" transform="translate(260,349)"/>
<path d="M0 0 C0.33 0.66 0.66 1.32 1 2 C0.29296875 3.8046875 0.29296875 3.8046875 -0.8125 5.875 C-1.16957031 6.55304688 -1.52664062 7.23109375 -1.89453125 7.9296875 C-2.25933594 8.61289063 -2.62414062 9.29609375 -3 10 C-3.67034989 11.33148535 -4.33812946 12.66427937 -5 14 C-5 11.69 -5 9.38 -5 7 C-4.34 7 -3.68 7 -3 7 C-3 6.34 -3 5.68 -3 5 C-3.66 5 -4.32 5 -5 5 C-4 2 -4 2 -1.9375 0.8125 C-1.298125 0.544375 -0.65875 0.27625 0 0 Z " fill="#9991DC" transform="translate(191,183)"/>
<path d="M0 0 C0.66 0.66 1.32 1.32 2 2 C1.66630785 5.33692153 0.25902102 7.56720813 -2 10 C-2.99 10 -3.98 10 -5 10 C-4.67 8.02 -4.34 6.04 -4 4 C-2.02 4.495 -2.02 4.495 0 5 C0 3.35 0 1.7 0 0 Z " fill="#6357CB" transform="translate(302,166)"/>
<path d="M0 0 C0.33 1.32 0.66 2.64 1 4 C-1.63250388 5.31625194 -2.80179056 4.74813658 -5.625 4.0625 C-6.85089844 3.77052734 -6.85089844 3.77052734 -8.1015625 3.47265625 C-9.04128906 3.23869141 -9.04128906 3.23869141 -10 3 C-6.59538535 1.23899242 -3.90650339 0 0 0 Z " fill="#837BD9" transform="translate(274,344)"/>
<path d="M0 0 C2.475 0.495 2.475 0.495 5 1 C4.67 1.99 4.34 2.98 4 4 C6.475 4.99 6.475 4.99 9 6 C9 7.32 9 8.64 9 10 C8.34 10 7.68 10 7 10 C5.2734375 8.06640625 5.2734375 8.06640625 3.375 5.5625 C2.74335938 4.73878906 2.11171875 3.91507813 1.4609375 3.06640625 C0 1 0 1 0 0 Z " fill="#857BD6" transform="translate(177,244)"/>
<path d="M0 0 C0.61875 0.33 1.2375 0.66 1.875 1 C3.91018344 2.14193235 3.91018344 2.14193235 6 2 C6.66 3.65 7.32 5.3 8 7 C4.27566618 5.7874262 0.62197194 4.49140021 -3 3 C-2.01 2.01 -1.02 1.02 0 0 Z " fill="#8C84D5" transform="translate(271,241)"/>
<path d="M0 0 C0.99 0.33 1.98 0.66 3 1 C4.37001429 4.1967 3.8252404 6.69903842 3 10 C2.34 10 1.68 10 1 10 C1 9.01 1 8.02 1 7 C0.34 6.67 -0.32 6.34 -1 6 C-0.67 5.34 -0.34 4.68 0 4 C-0.66 3.67 -1.32 3.34 -2 3 C-1.34 2.01 -0.68 1.02 0 0 Z " fill="#7064CD" transform="translate(307,189)"/>
<path d="M0 0 C0.66 0 1.32 0 2 0 C2 0.66 2 1.32 2 2 C2.66 2 3.32 2 4 2 C6.48887372 6.68493876 5.85687773 9.9444214 5 15 C4.67 15 4.34 15 4 15 C3.67 11.37 3.34 7.74 3 4 C2.01 4 1.02 4 0 4 C0 2.68 0 1.36 0 0 Z " fill="#938CD1" transform="translate(314,149)"/>
<path d="M0 0 C-0.33 1.98 -0.66 3.96 -1 6 C-3.92824652 5.02391783 -5.61426621 3.89213369 -8 2 C-4.77208445 -0.1519437 -3.71599191 -0.20086443 0 0 Z " fill="#7970D9" transform="translate(292,336)"/>
<path d="M0 0 C0.99 0.33 1.98 0.66 3 1 C3 1.66 3 2.32 3 3 C3.99 3.33 4.98 3.66 6 4 C7.1577506 7.47325181 7.06866652 10.36067448 7 14 C6.33333333 12.66666667 5.66666667 11.33333333 5 10 C4.46375 8.96875 3.9275 7.9375 3.375 6.875 C2 4 2 4 2 2 C1.34 2 0.68 2 0 2 C0 1.34 0 0.68 0 0 Z " fill="#948ED7" transform="translate(301,265)"/>
<path d="M0 0 C-8.261959 3.62870159 -8.261959 3.62870159 -13 2 C-12.67 1.34 -12.34 0.68 -12 0 C-7.56759403 -0.79928632 -4.33947146 -1.29696563 0 0 Z " fill="#8E87D3" transform="translate(262,325)"/>
<path d="M0 0 C1.32 0.33 2.64 0.66 4 1 C3.0409375 1.7734375 3.0409375 1.7734375 2.0625 2.5625 C-0.55791681 5.65935623 -0.69389817 8.02067623 -1 12 C-3 9 -3 9 -2.75 6 C-2 3 -2 3 0 0 Z " fill="#958DD5" transform="translate(340,245)"/>
<path d="M0 0 C0.66 0 1.32 0 2 0 C4.03684712 4.07369424 4.0257259 6.58937864 3 11 C2.67 10.34 2.34 9.68 2 9 C1.34 9 0.68 9 0 9 C0 6.03 0 3.06 0 0 Z " fill="#9086D2" transform="translate(459,211)"/>
<path d="M0 0 C-3.61891796 1.93570031 -6.86736741 3.65561395 -11 4 C-11.66 3.34 -12.32 2.68 -13 2 C-11.5882217 1.46605821 -10.17029756 0.94834896 -8.75 0.4375 C-7.96109375 0.14746094 -7.1721875 -0.14257812 -6.359375 -0.44140625 C-3.80896548 -1.04522837 -2.44677771 -0.8473932 0 0 Z " fill="#8278D3" transform="translate(223,143)"/>
<path d="M0 0 C0.33 0 0.66 0 1 0 C1 1.65 1 3.3 1 5 C1.66 5 2.32 5 3 5 C3.66 6.98 4.32 8.96 5 11 C3.125 10.875 3.125 10.875 1 10 C-0.40666215 6.98572397 -1.14845728 4.94022947 -0.625 1.625 C-0.41875 1.08875 -0.2125 0.5525 0 0 Z " fill="#7A73D0" transform="translate(222,388)"/>
<path d="M0 0 C3.3 0.33 6.6 0.66 10 1 C10 1.99 10 2.98 10 4 C9.01 4.495 9.01 4.495 8 5 C6.0546875 4.22265625 6.0546875 4.22265625 3.875 3.0625 C3.15054688 2.68222656 2.42609375 2.30195313 1.6796875 1.91015625 C1.12539062 1.60980469 0.57109375 1.30945313 0 1 C0 0.67 0 0.34 0 0 Z " fill="#7B72D0" transform="translate(205,267)"/>
<path d="M0 0 C5.05255964 0.63156995 9.29593201 2.13459373 14 4 C14 4.33 14 4.66 14 5 C8.58609132 4.53328373 4.79482068 3.75702189 0 1 C0 0.67 0 0.34 0 0 Z " fill="#9290D5" transform="translate(219,255)"/>
<path d="M0 0 C1.32 0 2.64 0 4 0 C2.68775452 3.93673644 1.08089673 6.22719294 -2 9 C-2 7.68 -2 6.36 -2 5 C-1.34 5 -0.68 5 0 5 C0 3.35 0 1.7 0 0 Z " fill="#928CD5" transform="translate(317,326)"/>
<path d="M0 0 C2.875 0.3125 2.875 0.3125 6 1 C6.66 1.99 7.32 2.98 8 4 C6.25 4.6875 6.25 4.6875 4 5 C1.75 3.6875 1.75 3.6875 0 2 C0 1.34 0 0.68 0 0 Z " fill="#7C73D9" transform="translate(353,291)"/>
<path d="M0 0 C2.99332739 0.9977758 3.94766315 1.7522025 6 4 C3.1875 4.625 3.1875 4.625 0 5 C-0.99 4.34 -1.98 3.68 -3 3 C-2.67 2.34 -2.34 1.68 -2 1 C-1.34 1.33 -0.68 1.66 0 2 C0 1.34 0 0.68 0 0 Z " fill="#847BDF" transform="translate(42,291)"/>
<path d="M0 0 C1.32 0.66 2.64 1.32 4 2 C3.01 2.66 2.02 3.32 1 4 C1.66 4.33 2.32 4.66 3 5 C2.01 6.485 2.01 6.485 1 8 C0.01 7.01 -0.98 6.02 -2 5 C-1.34 3.35 -0.68 1.7 0 0 Z " fill="#7B6CD9" transform="translate(138,209)"/>
<path d="M0 0 C0.33 0 0.66 0 1 0 C1 1.98 1 3.96 1 6 C0.01 6 -0.98 6 -2 6 C-2.66 6.66 -3.32 7.32 -4 8 C-3.67 5.69 -3.34 3.38 -3 1 C-2.01 1.33 -1.02 1.66 0 2 C0 1.34 0 0.68 0 0 Z " fill="#8479DE" transform="translate(301,165)"/>
<path d="M0 0 C0.99 0.99 1.98 1.98 3 3 C2.67 3.99 2.34 4.98 2 6 C0.68 6 -0.64 6 -2 6 C-2 4.35 -2 2.7 -2 1 C-1.34 0.67 -0.68 0.34 0 0 Z " fill="#7C75D4" transform="translate(265,393)"/>
<path d="M0 0 C2.64 0 5.28 0 8 0 C7.1646875 0.37125 7.1646875 0.37125 6.3125 0.75 C3.84535202 1.99199765 3.84535202 1.99199765 1.375 4.125 C-1 6 -1 6 -3 6 C-3 5.01 -3 4.02 -3 3 C-2.01 2.67 -1.02 2.34 0 2 C0 1.34 0 0.68 0 0 Z " fill="#6052CC" transform="translate(180,298)"/>
<path d="M0 0 C-0.33 0.99 -0.66 1.98 -1 3 C-3.3125 3.625 -3.3125 3.625 -6 4 C-6.99 3.34 -7.98 2.68 -9 2 C-3.375 -1.125 -3.375 -1.125 0 0 Z " fill="#7B6DDA" transform="translate(233,274)"/>
<path d="M0 0 C3.36704285 -0.2295711 5.41370268 -0.33943529 8.375 1.375 C8.91125 1.91125 9.4475 2.4475 10 3 C10 3.66 10 4.32 10 5 C5 3 5 3 0 1 C0 0.67 0 0.34 0 0 Z " fill="#9189D9" transform="translate(242,283)"/>
<path d="M0 0 C1.9078584 3.1749094 2.1609041 5.10585211 1.625 8.75 C1.51414062 9.54921875 1.40328125 10.3484375 1.2890625 11.171875 C1.19367188 11.77515625 1.09828125 12.3784375 1 13 C0.67 13 0.34 13 0 13 C-0.19551338 11.39679026 -0.38111983 9.79237014 -0.5625 8.1875 C-0.71912109 6.84751953 -0.71912109 6.84751953 -0.87890625 5.48046875 C-1 3 -1 3 0 0 Z " fill="#8981D2" transform="translate(325,273)"/>
<path d="M0 0 C1.65 0 3.3 0 5 0 C5.33 0.99 5.66 1.98 6 3 C6.99 3.33 7.98 3.66 9 4 C8.01 4.495 8.01 4.495 7 5 C4.64018187 4.06421005 2.30368736 3.06652192 0 2 C0 1.34 0 0.68 0 0 Z " fill="#8A81D2" transform="translate(239,230)"/>
<path d="M0 0 C0.99 0.33 1.98 0.66 3 1 C2.6875 2.875 2.6875 2.875 2 5 C1.01 5.66 0.02 6.32 -1 7 C-1.625 4.625 -1.625 4.625 -2 2 C-1.34 1.34 -0.68 0.68 0 0 Z " fill="#867ED3" transform="translate(197,171)"/>
<path d="M0 0 C1.43861294 0.08746284 2.87597508 0.19565348 4.3125 0.3125 C5.11300781 0.37050781 5.91351563 0.42851562 6.73828125 0.48828125 C9.36272334 1.08206694 10.30820672 1.95780294 12 4 C7.6822542 3.49202991 3.96697886 2.80317221 0 1 C0 0.67 0 0.34 0 0 Z " fill="#938ED3" transform="translate(180,358)"/>
<path d="M0 0 C0.99 0.66 1.98 1.32 3 2 C3 2.99 3 3.98 3 5 C1.35 5 -0.3 5 -2 5 C-2.33 4.34 -2.66 3.68 -3 3 C-2.34 3 -1.68 3 -1 3 C-0.67 2.01 -0.34 1.02 0 0 Z " fill="#7F74D7" transform="translate(235,352)"/>
<path d="M0 0 C0.66 0 1.32 0 2 0 C2 0.66 2 1.32 2 2 C3.32 2.66 4.64 3.32 6 4 C6 4.66 6 5.32 6 6 C4.35 5.67 2.7 5.34 1 5 C0.67 3.35 0.34 1.7 0 0 Z " fill="#8B83D3" transform="translate(306,245)"/>
<path d="M0 0 C0.33 0 0.66 0 1 0 C0.51855059 4.81449408 0.1991413 7.60171741 -2 12 C-2 9.03 -2 6.06 -2 3 C-1.34 3 -0.68 3 0 3 C0 2.01 0 1.02 0 0 Z " fill="#A098D8" transform="translate(317,164)"/>
<path d="M0 0 C0.99 0.66 1.98 1.32 3 2 C3 2.99 3 3.98 3 5 C0.69 5.33 -1.62 5.66 -4 6 C-2.68 4.02 -1.36 2.04 0 0 Z " fill="#7C75D5" transform="translate(299,325)"/>
<path d="M0 0 C0.99 0.99 1.98 1.98 3 3 C2.01 4.98 1.02 6.96 0 9 C-0.33 9 -0.66 9 -1 9 C-0.67 6.03 -0.34 3.06 0 0 Z " fill="#5F52C7" transform="translate(172,319)"/>
<path d="M0 0 C0.99 0 1.98 0 3 0 C3 0.66 3 1.32 3 2 C3.99 2.33 4.98 2.66 6 3 C5.34 3.66 4.68 4.32 4 5 C4 4.34 4 3.68 4 3 C2.35 3 0.7 3 -1 3 C-1.33 3.66 -1.66 4.32 -2 5 C-2 4.01 -2 3.02 -2 2 C-1.34 2 -0.68 2 0 2 C0 1.34 0 0.68 0 0 Z " fill="#766DCF" transform="translate(262,274)"/>
<path d="M0 0 C0.33 0.66 0.66 1.32 1 2 C1.99 2 2.98 2 4 2 C3.67 3.32 3.34 4.64 3 6 C1.68 5.67 0.36 5.34 -1 5 C-0.67 3.35 -0.34 1.7 0 0 Z " fill="#6A61D0" transform="translate(146,255)"/>
<path d="M0 0 C3.37503669 1.1858237 5.64722731 2.27573689 8 5 C3.48279689 5.36625971 3.48279689 5.36625971 1.1875 3.625 C0 2 0 2 0 0 Z " fill="#9691D7" transform="translate(238,209)"/>
<path d="M0 0 C0.66 0.66 1.32 1.32 2 2 C-1.96 1.67 -5.92 1.34 -10 1 C-10 0.67 -10 0.34 -10 0 C-6.31938873 -0.9464429 -3.66134991 -1.08850943 0 0 Z " fill="#9D98DA" transform="translate(282,156)"/>
<path d="M0 0 C-0.33 1.32 -0.66 2.64 -1 4 C-2.65 4.33 -4.3 4.66 -6 5 C-3.74193548 0 -3.74193548 0 0 0 Z " fill="#857CD1" transform="translate(228,109)"/>
<path d="M0 0 C0.33 1.32 0.66 2.64 1 4 C1.99 4 2.98 4 4 4 C4 4.99 4 5.98 4 7 C3.01 6.67 2.02 6.34 1 6 C0.34 6.66 -0.32 7.32 -1 8 C-0.67 5.36 -0.34 2.72 0 0 Z " fill="#8B7FDC" transform="translate(172,314)"/>
<path d="M0 0 C2.99324263 1.0975223 3.84610901 1.67682892 5.25 4.625 C5.4975 5.40875 5.745 6.1925 6 7 C2.99390037 5.99796679 1.93823179 5.39971554 0 3 C0 2.01 0 1.02 0 0 Z " fill="#8681D3" transform="translate(269,280)"/>
<path d="M0 0 C0.66 0 1.32 0 2 0 C2.66 2.31 3.32 4.62 4 7 C3.34 7.66 2.68 8.32 2 9 C0.14223235 5.86501708 -0.20140476 3.62528568 0 0 Z " fill="#A4A0D8" transform="translate(37,250)"/>
<path d="M0 0 C2.64 0.33 5.28 0.66 8 1 C8 1.66 8 2.32 8 3 C5.03 3 2.06 3 -1 3 C-0.67 2.01 -0.34 1.02 0 0 Z " fill="#5F52D2" transform="translate(297,200)"/>
<path d="M0 0 C2.31 0.33 4.62 0.66 7 1 C5.35 2.32 3.7 3.64 2 5 C1.34 4.34 0.68 3.68 0 3 C0 2.01 0 1.02 0 0 Z " fill="#877ED8" transform="translate(282,179)"/>
<path d="M0 0 C2.64 0 5.28 0 8 0 C8 1.65 8 3.3 8 5 C5.28775382 3.38731308 2.62647188 1.75098126 0 0 Z " fill="#A19ADE" transform="translate(292,160)"/>
<path d="M0 0 C4.02992782 0.55312735 8.02022924 1.1558062 12 2 C12 2.33 12 2.66 12 3 C4.61538462 3.36923077 4.61538462 3.36923077 1.5 1.5 C1.005 1.005 0.51 0.51 0 0 Z " fill="#A7A0DB" transform="translate(290,141)"/>
</svg>
